<svg xmlns="http://www.w3.org/2000/svg" viewBox="0 0 1200 320" fill="none" role="img" aria-label="FinSight  Persona-aware personal finance for India">
  <defs>
    <linearGradient id="bg" x1="0" y1="0" x2="1200" y2="320" gradientUnits="userSpaceOnUse">
      <stop stop-color="#0E0E0E"/>
      <stop offset="0.45" stop-color="#141414"/>
      <stop offset="1" stop-color="#1A120E"/>
    </linearGradient>
    <linearGradient id="glow" x1="900" y1="40" x2="1150" y2="280" gradientUnits="userSpaceOnUse">
      <stop stop-color="#F05A22" stop-opacity="0.22"/>
      <stop offset="1" stop-color="#F05A22" stop-opacity="0"/>
    </linearGradient>
    <linearGradient id="glow2" x1="80" y1="260" x2="280" y2="60" gradientUnits="userSpaceOnUse">
      <stop stop-color="#2E9A62" stop-opacity="0.14"/>
      <stop offset="1" stop-color="#2E9A62" stop-opacity="0"/>
    </linearGradient>
    <filter id="soft" x="-20%" y="-20%" width="140%" height="140%">
      <feGaussianBlur stdDeviation="18"/>
    </filter>
  </defs>

  <rect width="1200" height="320" fill="url(#bg)"/>
  <rect width="1200" height="320" fill="url(#glow)"/>
  <rect width="1200" height="320" fill="url(#glow2)"/>

  <circle cx="1040" cy="72" r="90" fill="#F05A22" fill-opacity="0.08" filter="url(#soft)"/>
  <circle cx="140" cy="248" r="70" fill="#2E9A62" fill-opacity="0.1" filter="url(#soft)"/>

  <g transform="translate(72 78)">
    <path d="M52 10 82 28v44L52 90 22 72V28L52 10z" fill="#F05A22"/>
    <path d="M36 62 46 44l10 6 14-18" stroke="#FFFFFF" stroke-width="4" stroke-linecap="round" stroke-linejoin="round"/>
    <text x="108" y="62" font-family="system-ui, -apple-system, 'Segoe UI', sans-serif" font-size="54" font-weight="650" letter-spacing="-0.035em" fill="#FFFFFF">FinSight</text>
    <text x="110" y="98" font-family="system-ui, -apple-system, 'Segoe UI', sans-serif" font-size="20" font-weight="450" fill="#A3A3A3">Persona-aware personal finance for India</text>
  </g>

  <g transform="translate(72 196)">
    <rect x="0" y="0" width="132" height="34" rx="17" fill="#262626" stroke="#404040"/>
    <text x="66" y="22" text-anchor="middle" font-family="system-ui, sans-serif" font-size="13" font-weight="600" fill="#F5F5F5">Dashboard</text>

    <rect x="144" y="0" width="108" height="34" rx="17" fill="#262626" stroke="#404040"/>
    <text x="198" y="22" text-anchor="middle" font-family="system-ui, sans-serif" font-size="13" font-weight="600" fill="#F5F5F5">Budgets</text>

    <rect x="264" y="0" width="118" height="34" rx="17" fill="#262626" stroke="#404040"/>
    <text x="323" y="22" text-anchor="middle" font-family="system-ui, sans-serif" font-size="13" font-weight="600" fill="#F5F5F5">Investments</text>

    <rect x="394" y="0" width="92" height="34" rx="17" fill="#1A2F24" stroke="#3A6B50"/>
    <text x="440" y="22" text-anchor="middle" font-family="system-ui, sans-serif" font-size="13" font-weight="600" fill="#62D492">Kash AI</text>

    <rect x="498" y="0" width="108" height="34" rx="17" fill="#262626" stroke="#404040"/>
    <text x="552" y="22" text-anchor="middle" font-family="system-ui, sans-serif" font-size="13" font-weight="600" fill="#F5F5F5">Net worth</text>
  </g>

  <path d="M72 168 H1128" stroke="#333333" stroke-width="1"/>
</svg>
